# AST/ASF file generated using VICON BodyLanguage
# -----------------------------------------------
:version 1.10
:name VICON
:units
  mass 1.0
  length 0.45
  angle deg
:documentation
   .ast/.asf automatically generated from VICON data using
   VICON BodyBuilder and BodyLanguage model FoxedUp or BRILLIANT.MOD
:root
   order TX TY TZ RX RY RZ
   axis XYZ
   position 0 0 0  
   orientation 0 0 0 
:bonedata
  begin
     id 1 
     name lhipjoint
     direction 0.584852 -0.759097 0.285867 
     length 2.43633 
     axis 0 0 0  XYZ
  end
  begin
     id 2 
     name lfemur
     direction 0.34202 -0.939693 0  
     length 7.14704  
     axis 0 0 20  XYZ
    dof rx ry rz
    limits (-160.0 20.0)
           (-70.0 70.0)
           (-60.0 70.0)
  end
  begin
     id 3 
     name ltibia
     direction 0.342022 -0.939692 0   
     length 7.68483   
     axis 0 0 20   XYZ
    dof rx
    limits (-10.0 170.0)
  end
  begin
     id 4 
     name lfoot
     direction 0.0999605 -0.274639 0.956337   
     length 2.40452   
     axis -90 7.62852e-016 20   XYZ
    dof rx rz
    limits (-45.0 90.0)
           (-70.0 20.0)
  end
  begin
     id 5 
     name ltoes
     direction 1.53468e-011 -4.21881e-011 1   
     length 1.19837   
     axis -90 7.62852e-016 20   XYZ
    dof rx
    limits (-90.0 20.0)
  end
  begin
     id 6 
     name rhipjoint
     direction -0.569886 -0.769002 0.289597   
     length 2.40495  
     axis 0 0 0  XYZ 
  end
  begin
     id 7 
     name rfemur
     direction -0.34202 -0.939693 0   
     length 7.45086   
     axis 0 0 -20   XYZ
    dof rx ry rz
    limits (-160.0 20.0)
           (-70.0 70.0)
           (-70.0 60.0)
  end
  begin
     id 8 
     name rtibia
     direction -0.34202 -0.939693 0   
     length 7.76831   
     axis 0 0 -20   XYZ
    dof rx
    limits (-10.0 170.0)
 end
 begin
     id 9 
     name rfoot
     direction -0.0798572 -0.219406 0.97236   
     length 2.35911  
     axis -90 -7.62852e-016 -20   XYZ
    dof rx rz
    limits (-45.0 90.0)
           (-20.0 70.0)
  end
  begin
     id 10 
     name rtoes
     direction -1.53469e-011 -4.21728e-011 1   
     length 1.18261   
     axis -90 -7.62852e-016 -20   XYZ
    dof rx
    limits (-90.0 20.0)
  end
  begin
     id 11 
     name lowerback
     direction 0.0242088 0.999437 0.0232389   
     length 2.1561   
     axis 0 0 0   XYZ
    dof rx ry rz
    limits (-20.0 45.0)
           (-30.0 30.0)
           (-30.0 30.0)
  end
  begin
     id 12 
     name upperback
     direction -0.0356893 0.999013 -0.0264323   
     length 2.14431   
     axis 0 0 0   XYZ
    dof rx ry rz
    limits (-20.0 45.0)
           (-30.0 30.0)
           (-30.0 30.0)
  end
  begin
     id 13 
     name thorax
     direction -0.0472163 0.998194 -0.0371284   
     length 2.16169   
     axis 0 0 0   XYZ
    dof rx ry rz
    limits (-20.0 45.0)
           (-30.0 30.0)
           (-30.0 30.0)
  end
  begin
     id 14 
     name lowerneck
     direction 0.00863244 0.999921 0.00911972   
     length 1.58651   
     axis 0 0 0   XYZ
    dof rx ry rz
    limits (-20.0 45.0)
           (-30.0 30.0)
           (-30.0 30.0)
  end
  begin
     id 15 
     name upperneck
     direction 0.149523 0.979068 -0.138086   
     length 1.57486   
     axis 0 0 0   XYZ
    dof rx ry rz
    limits (-20.0 45.0)
           (-30.0 30.0)
           (-30.0 30.0)
  end
  begin
     id 16
     name head
     direction 0.0445219 0.997708 -0.0509576  
     length 1.6019  
     axis 0 0 0   XYZ
    dof rx ry rz
    limits (-20.0 45.0)
           (-30.0 30.0)
           (-30.0 30.0)
  end
  begin
     id 17 
     name lclavicle
     direction 0.911271 0.381667 -0.154644  
     length 3.80848  
     axis 0 0 0   XYZ
    dof ry rz
    limits (-20.0 10.0)
           (0.0 20.0)
  end
  begin
     id 18 
     name lhumerus
     direction 1 -4.49003e-011 2.1308e-027   
     length 5.19069   
     axis 180 -30 -90   XYZ
    dof rx ry rz
    limits (-60.0 90.0)
           (-90.0 90.0)
           (-90.0 90.0)
  end
  begin
     id 19
     name lradius
     direction 1 -4.48914e-011 4.01554e-027   
     length 3.30016   
     axis 180 -30 -90   XYZ
    dof rx
    limits (-10.0 170.0)
  end
  begin
     id 20
     name lwrist
     direction 1 -4.49003e-011 1.1934e-026   
     length 1.65008   
     axis -8.46377e-015 90 90   XYZ
    dof ry
    limits (-180.0 0.0)
 end
  begin
     id 21 
     name lhand
     direction 1 -4.49034e-011 2.38659e-026   
     length 0.707698   
     axis -1.52313e-014 90 90   XYZ
    dof rx rz
    limits (-90.0 90.0)
           (-45.0 45.0)
  end
  begin
     id 22 
     name lfingers
     direction 1 -4.48691e-011 4.77775e-026   
     length 0.570564   
     axis -3.04623e-014 90 90   XYZ
    dof rx
    limits (0.0 90.0)
  end
  begin
     id 23
     name lthumb
     direction 0.707107 -6.34832e-011 0.707107   
     length 0.819219   
     axis -90 45 -1.62303e-014   XYZ
    dof rx rz
    limits (-45.0 45.0)
           (-45.0 45.0)
  end
  begin
     id 24 
     name rclavicle
     direction -0.815579 0.573708 -0.0754329   
     length 3.54371  
     axis 0 0 0   XYZ 
    dof ry rz
    limits (-10.0 20.0)
           (-20.0 0.0)
  end
  begin
     id 25 
     name rhumerus
     direction -1 -4.48956e-011 3.05351e-028  
     length 5.23924   
     axis 180 30 90   XYZ
    dof rx ry rz
    limits (-90.0 60.0)
           (-90.0 90.0)
           (-90.0 90.0)
  end
  begin
     id 26 
     name rradius
     direction -1 -4.49013e-011 3.53849e-027   
     length 3.32953   
     axis 180 30 90   XYZ
    dof rx
    limits (-10.0 170.0)
  end
  begin
     id 27 
     name rwrist
     direction -1 -4.48901e-011 1.19374e-026   
     length 1.66477   
     axis -8.46377e-015 -90 -90   XYZ
    dof ry
    limits (-180.0 0.0)
  end
  begin
     id 28
     name rhand
     direction -1 -4.48877e-011 2.38764e-026   
     length 0.607414   
     axis -1.52313e-014 -90 -90   XYZ
    dof rx rz
    limits (-90.0 90.0)
           (-45.0 45.0)
  end
  begin
     id 29
     name rfingers
     direction -1 -4.48882e-011 4.77521e-026   
     length 0.489712   
     axis -3.04623e-014 -90 -90   XYZ
    dof rx
    limits (0.0 90.0)
  end
  begin
     id 30
     name rthumb
     direction -0.707107 -6.34974e-011 0.707107   
     length 0.703132   
     axis -90 -45 1.62303e-014   XYZ
    dof rx rz
    limits (-45.0 45.0)
           (-45.0 45.0)
  end
:hierarchy
  begin
    root lhipjoint rhipjoint lowerback
    lhipjoint lfemur
    lfemur ltibia
    ltibia lfoot
    lfoot ltoes
    rhipjoint rfemur
    rfemur rtibia
    rtibia rfoot
    rfoot rtoes
    lowerback upperback
    upperback thorax
    thorax lowerneck lclavicle rclavicle
    lowerneck upperneck
    upperneck head
    lclavicle lhumerus
    lhumerus lradius
    lradius lwrist
    lwrist lhand lthumb
    lhand lfingers
    rclavicle rhumerus
    rhumerus rradius
    rradius rwrist
    rwrist rhand rthumb
    rhand rfingers
  end

#!OML:ASF E:\VariousWalksJay\Project 1\Capture day 1\Session 1\Actor2.ASF
:FULLY-SPECIFIED
:DEGREES
262
root 18.204 15.9953 -7.72504 22.5319 -47.4626 -6.25976
lowerback 34.3297 -3.04562 5.43232
upperback 16.5261 -3.33449 -2.66322
thorax 0.339252 -1.57641 -4.64854
lowerneck 3.2207 3.34922 3.30195
upperneck -24.25 4.55901 -1.52006
head -7.88141 1.90425 -1.39174
rclavicle -7.95139e-014 1.82882e-014
rhumerus -32.5346 22.045 -82.0223
rradius 98.6849
rwrist 9.1431
rhand -39.1756 3.32408
rfingers 7.12502
rthumb -12.1729 -26.3017
lclavicle -7.95139e-014 1.82882e-014
lhumerus 46.6003 -26.9673 45.607
lradius 90.505
lwrist 43.8881
lhand -36.0967 8.23297
lfingers 7.12502
lthumb -9.2031 38.0121
rfemur -60.636 0.878576 20.2377
rtibia 107.349
rfoot -19.4657 -6.22716
rtoes -30.2721
lfemur -61.0783 12.9718 -31.6371
ltibia 53.1872
lfoot -16.4059 11.1964
ltoes 2.00304
263
root 18.1878 15.9278 -7.67999 22.0976 -47.4369 -6.054
lowerback 34.9459 -3.06535 5.41882
upperback 16.6488 -3.35339 -2.74275
thorax 0.256521 -1.58648 -4.69894
lowerneck 3.18962 3.29529 3.3473
upperneck -24.4897 4.50939 -1.40934
head -7.96038 1.85772 -1.36228
rclavicle -2.8625e-014 1.19271e-015
rhumerus -31.6434 22.1122 -81.8139
rradius 99.6932
rwrist 9.04998
rhand -38.7379 2.68072
rfingers 7.12502
rthumb -11.7509 -26.9697
lclavicle -2.8625e-014 1.19271e-015
lhumerus 47.6698 -25.8914 44.9955
lradius 90.2136
lwrist 44.609
lhand -36.1958 8.58944
lfingers 7.12502
lthumb -9.29876 38.3644
rfemur -62.4165 0.942179 20.094
rtibia 108.491
rfoot -19.5933 -5.85848
rtoes -30.6279
lfemur -61.2846 12.9759 -31.8886
ltibia 54.3896
lfoot -17.0695 11.3594
ltoes 1.90248
264
root 18.1729 15.8582 -7.63817 21.5396 -47.3696 -5.54367
lowerback 35.5283 -3.03943 5.1766
upperback 16.7011 -3.37278 -2.74558
thorax 0.123429 -1.6137 -4.54802
lowerneck 3.11807 3.2569 3.5077
upperneck -24.646 4.43136 -1.57384
head -7.99367 1.8161 -1.4388
rclavicle -1.59028e-014 1.03368e-014
rhumerus -30.7929 22.2748 -81.4624
rradius 100.692
rwrist 8.77901
rhand -38.368 1.85647
rfingers 7.12502
rthumb -11.3942 -27.814
lclavicle -1.59028e-014 1.03368e-014
lhumerus 48.6611 -24.8169 44.5632
lradius 89.9218
lwrist 45.4721
lhand -36.1364 8.96863
lfingers 7.12502
lthumb -9.24139 38.7461
rfemur -64.3203 0.843008 19.7426
rtibia 109.511
rfoot -19.7538 -5.38712
rtoes -30.6438
lfemur -61.5633 12.8583 -32.3449
ltibia 55.5553
lfoot -17.6961 11.4363
ltoes 1.7863
265
root 18.1559 15.7923 -7.58718 21.215 -47.3395 -5.5881
lowerback 36.1943 -3.04499 5.25421
upperback 16.8461 -3.34813 -2.73843
thorax 0.0664569 -1.60262 -4.56872
lowerneck 3.02332 3.20617 3.6296
upperneck -24.8421 4.34957 -1.64564
head -8.04039 1.76538 -1.47811
rclavicle -1.59028e-014 1.66979e-014
rhumerus -29.8315 22.4446 -81.1529
rradius 101.611
rwrist 8.6331
rhand -37.9498 1.15638
rfingers 7.12502
rthumb -10.9908 -28.5359
lclavicle -1.59028e-014 1.66979e-014
lhumerus 49.6265 -23.6841 44.2881
lradius 89.589
lwrist 46.2348
lhand -36.1041 9.22022
lfingers 7.12502
lthumb -9.21021 38.9991
rfemur -65.8628 1.0303 19.7526
rtibia 110.218
rfoot -19.9665 -5.11841
rtoes -31.0053
lfemur -61.6602 12.8711 -32.3454
ltibia 56.7434
lfoot -18.3748 11.586
ltoes 1.60808
266
root 18.1396 15.7217 -7.54448 20.7454 -47.2432 -5.17759
lowerback 36.6551 -3.03645 5.06405
upperback 16.9618 -3.38586 -2.72528
thorax 0.0476167 -1.634 -4.43041
lowerneck 2.97671 3.15954 3.62315
upperneck -25.0482 4.2769 -1.65139
head -8.10389 1.72462 -1.4759
rclavicle -6.36111e-015 -1.11319e-014
rhumerus -28.8807 22.7016 -80.8122
rradius 102.482
rwrist 8.44959
rhand -37.5777 0.448386
rfingers 7.12502
rthumb -10.6319 -29.2626
lclavicle -6.36111e-015 -1.11319e-014
lhumerus 50.5327 -22.5356 44.0361
lradius 89.2712
lwrist 46.944
lhand -36.0101 9.48202
lfingers 7.12502
lthumb -9.11959 39.2649
rfemur -67.6849 0.995111 19.4814
rtibia 110.856
rfoot -20.1415 -4.87203
rtoes -31.3318
lfemur -61.9315 12.7558 -32.7248
ltibia 57.871
lfoot -18.9655 11.6321
ltoes 1.6041
267
root 18.1224 15.6544 -7.49825 20.5511 -47.2193 -5.32908
lowerback 37.2266 -3.05277 5.11954
upperback 17.1096 -3.38378 -2.67743
thorax 0.0332397 -1.63721 -4.39383
lowerneck 2.87302 3.17484 3.55184
upperneck -25.2151 4.267 -1.72829
head -8.14129 1.72879 -1.48922
rclavicle -7.31528e-014 7.15625e-014
rhumerus -27.8629 23.0972 -80.4245
rradius 103.356
rwrist 8.12697
rhand -37.1173 -0.295207
rfingers 7.12502
rthumb -10.1878 -30.0285
lclavicle -7.31528e-014 7.15625e-014
lhumerus 51.3207 -21.3623 43.8245
lradius 88.9284
lwrist 47.5284
lhand -35.8639 9.71434
lfingers 7.12502
lthumb -8.9785 39.5033
rfemur -69.2393 1.32833 19.5849
rtibia 111.23
rfoot -20.3399 -4.91117
rtoes -31.8423
lfemur -62.1161 12.8193 -32.6576
ltibia 59.0155
lfoot -19.5711 11.694
ltoes 1.92318
268
root 18.1067 15.5887 -7.45433 20.0977 -47.1317 -4.96861
lowerback 37.7255 -3.08341 4.99528
upperback 17.1922 -3.44891 -2.71411
thorax -0.0366438 -1.67639 -4.33077
lowerneck 2.88725 3.14141 3.61237
upperneck -25.4016 4.21661 -1.76815
head -8.20645 1.69697 -1.51238
rclavicle -3.97569e-015 -1.39149e-014
rhumerus -26.9131 23.3957 -80.1813
rradius 104.147
rwrist 7.79404
rhand -36.9097 -1.05134
rfingers 7.12502
rthumb -9.98754 -30.7944
lclavicle -3.97569e-015 -1.39149e-014
lhumerus 52.0519 -20.3574 43.7334
lradius 88.5785
lwrist 47.9685
lhand -35.655 10.0032
lfingers 7.12502
lthumb -8.77688 39.8007
rfemur -70.9224 1.37208 19.3598
rtibia 111.492
rfoot -20.3852 -4.91124
rtoes -32.1009
lfemur -62.3637 12.6926 -32.9882
ltibia 60.0797
lfoot -20.0295 11.8873
ltoes 1.54546
